<?xml version="1.0" encoding="iso-8859-1"?>
<!-- Uploaded to: SVG Repo, www.svgrepo.com, Generator: SVG Repo Mixer Tools -->
<!DOCTYPE svg PUBLIC "-//W3C//DTD SVG 1.1//EN" "http://www.w3.org/Graphics/SVG/1.1/DTD/svg11.dtd">
<svg fill="#000000" version="1.1" id="Capa_1" xmlns="http://www.w3.org/2000/svg" xmlns:xlink="http://www.w3.org/1999/xlink" 
	 width="800px" height="800px" viewBox="0 0 33.926 33.926"
	 xml:space="preserve">
<g>
	<path d="M33.847,20.42c-0.12-0.123-0.277-0.227-0.111-0.425c0.018-0.021,0.019-0.075,0.007-0.104
		c-0.079-0.189-0.138-0.394-0.253-0.558c-0.149-0.215-0.29-0.412-0.279-0.69c0.007-0.185-0.027-0.371-0.045-0.558
		c0.038-0.002,0.086-0.004,0.134-0.006c-0.009-0.051-0.005-0.106-0.027-0.148c-0.104-0.191-0.182-0.385-0.166-0.609
		c0.004-0.058,0.001-0.123-0.02-0.177c-0.112-0.301-0.118-0.597-0.005-0.903c0.032-0.086-0.001-0.197-0.01-0.295
		c-0.003-0.04-0.043-0.094-0.029-0.116c0.118-0.176,0.037-0.329-0.042-0.484l0,0c0.026-0.028,0.066-0.056,0.085-0.084
		c0.006-0.01,0.011-0.019,0.011-0.029c0-0.225,0.169-0.438,0.021-0.68c-0.068-0.112-0.033-0.282-0.08-0.412
		c-0.075-0.203-0.18-0.395-0.27-0.587c0.078,0.019,0.187,0.045,0.296,0.071c0.009-0.021,0.017-0.043,0.025-0.064
		c-0.046-0.042-0.091-0.086-0.138-0.127c-0.169-0.146-0.347-0.284-0.505-0.441c-0.041-0.041-0.052-0.154-0.025-0.21
		c0.055-0.113,0.043-0.177-0.057-0.258c-0.107-0.087-0.196-0.197-0.282-0.307c-0.095-0.122-0.177-0.255-0.265-0.383
		c-0.021,0.003-0.04,0.006-0.062,0.01c0.052-0.025,0.102-0.05,0.135-0.066c-0.091-0.101-0.214-0.197-0.198-0.23
		c0.072-0.16-0.062-0.216-0.134-0.246c-0.239-0.099-0.297-0.349-0.459-0.509c-0.022-0.021-0.008-0.079-0.013-0.151
		c0.072,0.047,0.116,0.067,0.148,0.099c0.093,0.092,0.165,0.044,0.219-0.038c0.085-0.128-0.015-0.209-0.102-0.264
		c-0.209-0.134-0.431-0.247-0.643-0.376c-0.312-0.189-0.682-0.281-0.938-0.565c-0.029-0.032-0.082-0.047-0.126-0.061
		c-0.187-0.054-0.372-0.105-0.544-0.153c-0.025-0.058-0.035-0.143-0.071-0.157c-0.149-0.055-0.311-0.077-0.46-0.131
		c-0.304-0.111-0.604-0.234-0.933-0.255c-0.012-0.001-0.021-0.016-0.031-0.016c-0.439-0.01-0.877-0.019-1.316-0.027
		c-0.011,0-0.021,0.009-0.032,0.014c-0.501,0.27-0.995,0.55-1.302,1.058c-0.181,0.3-0.452,0.557-0.466,0.943
		c-0.001,0.041-0.054,0.09-0.095,0.117c-0.245,0.161-0.525,0.127-0.78,0.073c-0.342-0.072-0.666-0.228-1.007-0.311
		c-0.365-0.09-0.739-0.188-1.109-0.194c-1.337-0.02-2.674,0.013-4.011-0.004c-0.831-0.01-1.661-0.074-2.492-0.115
		c-0.035-0.002-0.073-0.005-0.104-0.021c-0.505-0.252-1.01-0.507-1.573-0.79c0.16-0.08,0.276-0.138,0.401-0.201
		C13.627,9.115,13.519,9.002,13.327,9c-0.063-0.001-0.128-0.022-0.188-0.045c-0.094-0.036-0.183-0.081-0.246-0.109
		c-0.059-0.071-0.093-0.152-0.152-0.176c-0.123-0.05-0.257-0.08-0.39-0.098c-0.159-0.022-0.335,0.016-0.477-0.04
		c-0.294-0.117-0.571-0.279-0.87-0.43c0.057-0.048,0.098-0.082,0.163-0.136c-0.375-0.202-0.733-0.382-1.076-0.587
		C9.976,7.311,9.889,7.187,9.808,7.074c-0.074-0.102-0.103-0.239-0.186-0.33C9.427,6.533,9.211,6.34,9.002,6.138
		c0.021-0.016,0.059-0.047,0.141-0.113c-0.361-0.127-0.689-0.234-1.01-0.358c-0.271-0.105-0.526-0.238-0.7-0.492
		C7.388,5.109,7.293,5.04,7.218,5.036C6.789,5.021,6.359,5.025,5.929,5.027c-0.063,0-0.132,0.016-0.188,0.044
		C5.548,5.169,5.37,5.335,5.133,5.179c-0.008-0.005-0.023,0-0.035,0.002C4.794,5.244,4.486,5.297,4.185,5.374
		C3.79,5.473,3.393,5.57,3.068,5.842C3.042,5.864,2.978,5.858,2.94,5.844c-0.102-0.037-0.2-0.086-0.291-0.127
		C2.623,5.745,2.613,5.753,2.608,5.763C2.6,5.778,2.589,5.797,2.592,5.813c0.032,0.228-0.107,0.364-0.261,0.494
		c-0.054,0.046-0.1,0.103-0.156,0.146c-0.402,0.304-0.74,0.781-1.358,0.506C0.801,6.952,0.781,6.958,0.763,6.956
		c-0.235-0.026-0.432-0.108-0.541-0.34C0.205,6.578,0.138,6.54,0.1,6.545C0.064,6.551,0.015,6.61,0.009,6.651
		C-0.02,6.844,0.021,7.015,0.137,7.188C0.3,7.429,0.59,7.608,0.562,7.958C0.56,7.979,0.574,8.011,0.59,8.021
		c0.265,0.162,0.198,0.409,0.168,0.647c-0.001,0.012,0,0.024-0.001,0.036c-0.04,0.334-0.08,0.667-0.121,1.001
		C0.633,9.733,0.614,9.76,0.605,9.789c-0.117,0.329-0.204,0.671-0.433,0.95c-0.029,0.035-0.036,0.1-0.029,0.147
		c0.003,0.023,0.071,0.058,0.099,0.05c0.166-0.048,0.364-0.014,0.476-0.204c0.06-0.101,0.156-0.134,0.273-0.046
		c0.09,0.069,0.163,0.033,0.209-0.074c0.041-0.095,0.096-0.184,0.161-0.305c0.158,0.188,0.327,0.338,0.431,0.523
		c0.174,0.312,0.368,0.634,0.442,0.976c0.098,0.459,0.103,0.941,0.122,1.414c0.011,0.275,0.038,0.554-0.07,0.829
		c-0.057,0.143-0.075,0.335,0.179,0.357c0.023,0.002,0.049,0.034,0.064,0.058c0.124,0.198,0.314,0.309,0.511,0.425
		c0.306,0.181,0.631,0.176,0.952,0.116c0.177-0.033,0.365-0.112,0.444-0.321c0.023-0.062,0.086-0.113,0.14-0.157
		c0.177-0.142,0.224-0.36,0.129-0.562c-0.093-0.197-0.176-0.4-0.255-0.603c-0.017-0.044-0.004-0.104,0.006-0.154
		c0.021-0.103,0.049-0.204,0.076-0.306c0.02-0.079,0.035-0.161,0.065-0.236c0.119-0.295,0.269-0.581,0.355-0.885
		c0.065-0.23,0.221-0.347,0.401-0.518c0.087,0.161,0.169,0.29,0.227,0.427c0.137,0.32,0.258,0.646,0.393,0.966
		c0.077,0.185,0.179,0.36,0.253,0.546c0.096,0.24,0.183,0.484,0.258,0.732c0.071,0.235,0.126,0.475,0.178,0.715
		c0.039,0.178,0.063,0.359,0.089,0.54c0.009,0.064,0.029,0.142,0.002,0.193c-0.13,0.248-0.107,0.516-0.082,0.772
		c0.017,0.173,0.086,0.361,0.187,0.503c0.252,0.356,0.533,0.692,0.806,1.032c0.113,0.14,0.116,0.29,0.032,0.432
		c-0.168,0.283-0.334,0.571-0.534,0.831c-0.322,0.419-0.667,0.822-1.011,1.225c-0.192,0.224-0.414,0.422-0.605,0.646
		c-0.286,0.336-0.66,0.582-0.887,0.986c-0.224,0.398-0.354,0.793-0.372,1.253c-0.011,0.269-0.159,0.534-0.256,0.798
		c-0.081,0.221-0.191,0.43-0.262,0.652c-0.093,0.291-0.195,0.572-0.375,0.826c-0.085,0.119-0.133,0.271-0.173,0.414
		c-0.053,0.192-0.051,0.404-0.125,0.588c-0.124,0.308-0.189,0.644-0.419,0.906c-0.062,0.071-0.073,0.195-0.089,0.299
		c-0.024,0.151-0.026,0.307-0.046,0.459C2.524,28.143,2.48,28.28,2.477,28.42c-0.003,0.168,0.104,0.269,0.273,0.254
		c0.173-0.017,0.342-0.074,0.515-0.1c0.376-0.054,0.593-0.299,0.746-0.615c0.056-0.117,0.075-0.252,0.137-0.363
		c0.09-0.16,0.072-0.291-0.058-0.414c-0.047-0.045-0.113-0.083-0.135-0.139c-0.032-0.08-0.07-0.191-0.038-0.26
		c0.065-0.142,0.168-0.267,0.266-0.392c0.105-0.136,0.265-0.244,0.322-0.394c0.082-0.218,0.087-0.463,0.135-0.692
		c0.043-0.207,0.086-0.415,0.153-0.615c0.121-0.363,0.254-0.724,0.395-1.078c0.072-0.18,0.145-0.371,0.266-0.519
		c0.333-0.406,0.693-0.791,1.04-1.188c0.085-0.097,0.144-0.225,0.244-0.3c0.298-0.224,0.617-0.417,0.914-0.642
		c0.292-0.219,0.566-0.463,0.851-0.692c0.08-0.063,0.172-0.112,0.262-0.171c0.126,0.32,0.245,0.615,0.356,0.912
		c0.089,0.238,0.173,0.477,0.25,0.719c0.051,0.162,0.089,0.33,0.128,0.496c0.06,0.257,0.156,0.514,0.165,0.773
		c0.014,0.444,0.222,0.808,0.472,1.127c0.233,0.295,0.499,0.562,0.678,0.9c0.196,0.371,0.399,0.737,0.593,1.109
		c0.076,0.145,0.114,0.313,0.208,0.443c0.145,0.199,0.333,0.366,0.484,0.562c0.132,0.169,0.263,0.347,0.353,0.54
		c0.165,0.352,0.3,0.718,0.445,1.078c0.06,0.15,0.199,0.164,0.297,0.109c0.156-0.089,0.318-0.201,0.419-0.346
		c0.185-0.264,0.328-0.557,0.261-0.898c-0.021-0.109-0.059-0.217-0.088-0.324c-0.098-0.354-0.111-0.364-0.474-0.355
		c-0.036,0.001-0.072,0.002-0.107,0.003c-0.104,0.003-0.143-0.05-0.189-0.146c-0.11-0.228-0.087-0.463-0.106-0.698
		c-0.008-0.099-0.068-0.233-0.146-0.276c-0.288-0.154-0.385-0.461-0.581-0.685c-0.234-0.267-0.406-0.588-0.616-0.877
		c-0.208-0.286-0.397-0.572-0.372-0.951c0.01-0.146-0.004-0.299-0.036-0.442c-0.042-0.188-0.144-0.369-0.163-0.559
		c-0.045-0.459,0.004-0.923-0.114-1.38c-0.079-0.306-0.092-0.63-0.136-0.945c-0.002-0.017-0.014-0.032-0.017-0.051
		c-0.055-0.315-0.268-0.621-0.078-0.951c0.092-0.159,0.208-0.306,0.319-0.454c0.013-0.018,0.063-0.015,0.095-0.011
		c0.099,0.013,0.196,0.036,0.295,0.047c0.481,0.052,0.963-0.034,1.451,0.097c0.433,0.114,0.903,0.105,1.358,0.125
		c0.497,0.02,0.994,0.006,1.487-0.097c0.328-0.067,0.666-0.089,0.999-0.132c0.023-0.003,0.044-0.018,0.067-0.023
		c0.233-0.061,0.467-0.121,0.7-0.18c0.069-0.018,0.144-0.023,0.205-0.056c0.145-0.079,0.229-0.001,0.296,0.105
		c0.053,0.085,0.089,0.181,0.132,0.272c0.217,0.451,0.389,0.924,0.709,1.324c0.149,0.187,0.268,0.404,0.367,0.625
		c0.12,0.262,0.216,0.535,0.302,0.811c0.058,0.182,0.128,0.382,0.107,0.566c-0.036,0.328-0.168,0.641-0.401,0.883
		c-0.552,0.57-1.113,1.128-1.673,1.689c-0.279,0.28-0.599,0.526-0.771,0.896c-0.162,0.346-0.318,0.696-0.463,1.05
		c-0.083,0.201-0.17,0.407-0.201,0.619c-0.035,0.24-0.012,0.488-0.01,0.732c0.002,0.328,0.246,0.474,0.532,0.314
		c0.176-0.098,0.357-0.191,0.513-0.314c0.169-0.134,0.354-0.266,0.378-0.518c0.01-0.109,0.04-0.232,0.105-0.316
		c0.111-0.142,0.011-0.211-0.048-0.316c-0.043-0.077-0.072-0.201-0.039-0.271c0.044-0.096,0.143-0.187,0.24-0.23
		c0.231-0.105,0.368-0.284,0.491-0.494c0.104-0.177,0.224-0.352,0.37-0.494c0.732-0.716,1.475-1.423,2.22-2.127
		c0.239-0.227,0.488-0.443,0.748-0.645c0.307-0.237,0.492-0.519,0.394-0.918c-0.024-0.1-0.089-0.217-0.171-0.27
		c-0.099-0.064-0.146-0.128-0.145-0.24c0.003-0.146-0.075-0.238-0.195-0.316c-0.059-0.039-0.099-0.123-0.124-0.195
		c-0.062-0.184-0.106-0.374-0.168-0.559c-0.118-0.359-0.288-0.704-0.257-1.099c0.002-0.028,0.006-0.057,0.009-0.085
		c0.041-0.332,0.184-0.84,0.471-1.137c0.135,0.111,0.259,0.241,0.361,0.402c0.241,0.38,0.578,0.699,0.886,1.033
		c0.181,0.194,0.365,0.396,0.585,0.537c0.235,0.151,0.52,0.225,0.772,0.35c0.465,0.231,0.873,0.537,1.213,0.938
		c0.31,0.364,0.646,0.704,0.979,1.047c0.189,0.196,0.407,0.364,0.59,0.566c0.231,0.258,0.434,0.543,0.66,0.806
		c0.17,0.198,0.402,0.356,0.526,0.577c0.221,0.395,0.379,0.821,0.561,1.236c0.089,0.205,0.171,0.412,0.254,0.621
		c0.134,0.332,0.263,0.666,0.399,0.996c0.057,0.135,0.104,0.281,0.195,0.391c0.119,0.143,0.301,0.232,0.413,0.378
		c0.208,0.271,0.387,0.565,0.576,0.851c0.067,0.102,0.146,0.227,0.277,0.156c0.197-0.105,0.282-0.015,0.365,0.141
		c0.067,0.127,0.334,0.195,0.466,0.141c0.192-0.079,0.246-0.247,0.281-0.423c0.056-0.279-0.001-0.558-0.123-0.798
		c-0.102-0.201-0.218-0.438-0.52-0.446c-0.119-0.003-0.249-0.046-0.35-0.111c-0.077-0.051-0.17-0.167-0.163-0.247
		c0.025-0.287-0.064-0.511-0.274-0.697c-0.018-0.016-0.034-0.033-0.045-0.055c-0.268-0.531-0.515-1.076-0.807-1.594
		c-0.274-0.486-0.373-1.034-0.591-1.539c-0.036-0.083,0-0.199-0.039-0.279c-0.037-0.074-0.135-0.117-0.196-0.184
		c-0.059-0.062-0.123-0.366-0.11-0.457c0.003-0.018,0.001-0.036,0.003-0.054c0.029-0.265-0.087-0.478-0.262-0.656
		c-0.289-0.298-0.59-0.584-0.881-0.88c-0.158-0.161-0.329-0.317-0.449-0.505c-0.16-0.25-0.291-0.523-0.403-0.798
		c-0.077-0.188-0.136-0.398-0.141-0.6c-0.018-0.728-0.01-1.456-0.009-2.185c0.001-0.723,0.043-1.449-0.212-2.147
		c-0.125-0.343-0.221-0.698-0.371-1.028c-0.167-0.363-0.382-0.704-0.578-1.052c-0.071-0.125-0.15-0.246-0.226-0.369
		c0.265,0.076,0.518,0.165,0.75,0.293c0.228,0.124,0.41,0.299,0.575,0.514c0.197,0.256,0.473,0.452,0.712,0.675
		c0.038,0.036,0.064,0.084,0.097,0.124c0.072,0.087,0.129,0.202,0.221,0.254c0.171,0.097,0.316,0.199,0.336,0.435
		c0.067-0.051,0.105-0.08,0.119-0.089c0.133,0.14,0.246,0.277,0.377,0.393c0.157,0.139,0.258,0.29,0.233,0.511
		c-0.008,0.072,0.019,0.147,0.028,0.221c0.018-0.001,0.036-0.003,0.053-0.004c0.018-0.13,0.034-0.26,0.052-0.39
		c0.021-0.009,0.042-0.019,0.062-0.028c0.174,0.217,0.348,0.433,0.528,0.657c0.381,0.041,0.526,0.387,0.734,0.691
		c0.073-0.207,0.177-0.167,0.327-0.105c0.216,0.088,0.259,0.284,0.354,0.449c0.095,0.168,0.137,0.377,0.262,0.513
		c0.222,0.242,0.294,0.539,0.378,0.831c0.067,0.232,0.094,0.475,0.138,0.712c0.063,0.347,0.134,0.693,0.186,1.042
		c0.034,0.227,0.04,0.458,0.062,0.741c0.091-0.092,0.159-0.16,0.228-0.229c0.055,0.068,0.114,0.144,0.178,0.223
		c0.058-0.053,0.099-0.089,0.14-0.127c0.099,0.104-0.112,0.281,0.108,0.341c0.034-0.041,0.069-0.082,0.107-0.128
		c0.275,0.486,0.275,0.486,0.45,0.551c0.111-0.316-0.157-0.566-0.156-0.874c0.051,0.013,0.097,0.038,0.126,0.026
		c0.157-0.066,0.183,0.04,0.251,0.148c0.176,0.278,0.431,0.48,0.724,0.631c0.031,0.016,0.085,0.006,0.119-0.01
		C33.95,20.64,33.963,20.541,33.847,20.42z"/>
</g>
</svg>